<?xml version="1.0" encoding="UTF-8"?>
<svg version="1.1" xmlns="http://www.w3.org/2000/svg" width="512" height="512">
<path d="M0 0 C0.98758301 0.21430664 1.97516602 0.42861328 2.99267578 0.64941406 C39.73993895 8.92251575 73.82165666 25.19064738 103 49 C103.61568848 49.49999512 104.23137695 49.99999023 104.86572266 50.51513672 C137.24325185 77.00584242 174.86321894 121.9476825 181.32714844 165.18847656 C181.49899011 168.49604848 181.21090901 170.64848499 179.5 173.5 C176.50581291 175.29651226 174.43101006 175.51498599 171 175.62890625 C167.86988415 174.64463154 166.79554053 172.67476182 165 170 C164.18474378 168.15243883 163.43601633 166.27434373 162.75 164.375 C149.16914147 130.5884739 108.87445517 108.39223585 77.6875 94 C76.95917969 93.65541748 76.23085938 93.31083496 75.48046875 92.95581055 C71.67076824 91.23505189 71.67076824 91.23505189 67.64453125 91.6875 C65.87952146 93.04608913 65.87952146 93.04608913 64 95 C59.65874764 95.57337295 57.68638649 95.48193094 54.0625 92.9375 C51.54456164 89.35134537 51.5793067 87.29107165 52 83 C51.030625 83.0825 50.06125 83.165 49.0625 83.25 C45.84713617 83.26083425 43.73530431 82.56283468 40.86328125 81.14453125 C36.0542712 78.92695322 31.27784434 77.60532208 26.125 76.4375 C24.77003418 76.12280762 24.77003418 76.12280762 23.38769531 75.80175781 C9.45758419 72.65061033 -5.23037683 69.77276295 -19.5625 69.9375 C-20.59503906 69.94652344 -21.62757813 69.95554687 -22.69140625 69.96484375 C-23.45324219 69.97644531 -24.21507812 69.98804687 -25 70 C-24.46858398 70.13462646 -23.93716797 70.26925293 -23.38964844 70.40795898 C18.23073548 81.14280961 54.33020137 105.34074539 76.50195312 142.73388672 C79.20500398 147.3945338 81.43758654 151.83082113 83 157 C84.03125 157.0825 85.0625 157.165 86.125 157.25 C91.40869717 158.27265107 94.47004857 160.42633567 98.1875 164.25 C102.20178989 170.34064672 103.56172377 175.34135932 102.59765625 182.6328125 C102.00076212 184.9969814 101.24311435 186.44491534 99.875 188.4375 C97.87038835 191.49548734 97.87915881 193.50684032 98.28515625 197.10546875 C98.3934375 198.08298096 98.50171875 199.06049316 98.61328125 200.06762695 C99.06527181 203.49493666 99.59559176 206.90316189 100.15576172 210.31420898 C105.80610025 245.88827915 101.14654679 282.88784537 87 316 C86.71431152 316.67160156 86.42862305 317.34320313 86.13427734 318.03515625 C76.4499587 340.42785414 62.75006371 359.41366292 46 377 C44.85337891 378.24330078 44.85337891 378.24330078 43.68359375 379.51171875 C10.53159096 414.34656432 -40.00613181 433.21719211 -87 438 C-87.97582031 438.11085938 -88.95164063 438.22171875 -89.95703125 438.3359375 C-151.62466704 444.31680912 -215.98616918 425.02183111 -263.953125 385.82421875 C-267.37049537 382.95762155 -270.69276986 379.99225584 -274 377 C-275.09207074 376.02952332 -276.18451789 375.05947004 -277.27734375 374.08984375 C-282.92444849 369.04079954 -288.15472758 363.8309274 -293 358 C-293.81855469 357.06929688 -294.63710938 356.13859375 -295.48046875 355.1796875 C-307.07653875 341.94070227 -316.41631646 327.33048191 -325 312 C-325.64582031 310.85917969 -326.29164063 309.71835937 -326.95703125 308.54296875 C-330.03348774 302.81513991 -332.1662129 298.53079222 -331 292 C-329.5625 289.5 -329.5625 289.5 -327 288 C-310.45604232 284.32745126 -288.15561235 302.81996785 -274.57421875 310.87109375 C-273.95853027 311.2357373 -273.3428418 311.60038086 -272.70849609 311.97607422 C-271.17621545 312.8943916 -269.65927088 313.83818496 -268.14453125 314.78515625 C-266.12075712 316.16429753 -266.12075712 316.16429753 -264 316 C-263.2575 315.175 -262.515 314.35 -261.75 313.5 C-259 311 -259 311 -256 310.375 C-251.89296559 311.23063217 -250.44598887 312.61878009 -248 316 C-247.6875 319.8125 -247.6875 319.8125 -248 323 C-247.38511719 323.02578125 -246.77023438 323.0515625 -246.13671875 323.078125 C-239.52071006 323.54240631 -239.52071006 323.54240631 -236.9375 325.8125 C-236 328 -236 328 -236 332 C-234.741875 332.350625 -233.48375 332.70125 -232.1875 333.0625 C-227.93097157 334.32634317 -223.80978132 335.81721299 -219.66992188 337.41064453 C-196.97827236 346.09156347 -172.35709604 352.16869979 -148 353 C-148.95777344 352.67128906 -149.91554687 352.34257812 -150.90234375 352.00390625 C-173.81703037 343.9163698 -193.85558993 331.23524139 -211 314 C-211.47630859 313.52626953 -211.95261719 313.05253906 -212.44335938 312.56445312 C-235.83916329 289.03956891 -249.01342226 258.26275736 -255 226 C-255.21398437 224.85917969 -255.42796875 223.71835937 -255.6484375 222.54296875 C-259.89548322 196.59905902 -257.97334892 170.52719991 -252.12109375 145.01953125 C-250.74566904 139.05849968 -250.74566904 139.05849968 -250 133 C-251.19943893 131.54122292 -252.40865936 130.08650581 -253.7109375 128.71875 C-256.71804102 124.70927863 -257.12903846 119.51833133 -256.87890625 114.63671875 C-255.77615169 108.05429719 -252.56981888 102.60033123 -247.14453125 98.6484375 C-243.54167089 96.64924552 -240.6420726 95.90424395 -236.53515625 95.84375 C-233.21718227 95.51467326 -233.21718227 95.51467326 -230.5456543 93.68139648 C-229.29458265 91.82210992 -228.26389507 89.93599622 -227.25 87.9375 C-226.41957144 86.46729827 -225.57935697 85.00258977 -224.73046875 83.54296875 C-224.2926709 82.78935059 -223.85487305 82.03573242 -223.40380859 81.25927734 C-214.90643456 67.58367746 -202.46214587 54.09564082 -190 44 C-188.58074219 42.80697266 -188.58074219 42.80697266 -187.1328125 41.58984375 C-159.50468124 18.76951826 -126.91010309 5.78949229 -92 -1 C-91.20271484 -1.16516113 -90.40542969 -1.33032227 -89.58398438 -1.50048828 C-61.096213 -7.22527526 -28.2990204 -6.15542341 0 0 Z " fill="#7925A5" transform="translate(331,39)"/>
<path d="M0 0 C15.2492783 11.52870932 38.90745756 32.03153735 42.0300293 51.93310547 C40.8503418 53.96826172 40.8503418 53.96826172 39.1550293 55.99560547 C35.28495732 60.68469268 34.67420986 64.31870184 34.75268555 70.30029297 C35.34468947 75.92016119 37.85140097 79.63948901 41.5925293 83.74560547 C45.7620681 86.93471009 50.99542688 87.83122629 56.0300293 88.93310547 C56.5191647 90.86811283 56.99568647 92.80630887 57.4675293 94.74560547 C57.8677832 96.36402344 57.8677832 96.36402344 58.27612305 98.01513672 C60.15797806 107.79493248 60.21642162 117.64907125 60.21533203 127.57519531 C60.21751892 129.79755824 60.23574761 132.01942346 60.25463867 134.24169922 C60.28903099 143.00200069 59.62714113 151.29296721 58.0300293 159.93310547 C57.82357219 161.28787611 57.62100009 162.64325233 57.42456055 163.99951172 C50.12642728 207.83729208 22.91778703 249.17385777 -13.0324707 274.93310547 C-27.41826154 284.98375996 -42.64766617 292.57308341 -58.9699707 298.93310547 C-59.66380859 299.21138184 -60.35764648 299.4896582 -61.07250977 299.77636719 C-73.67161865 304.79722419 -86.63313574 307.60646982 -99.9699707 309.93310547 C-101.39841309 310.18302246 -101.39841309 310.18302246 -102.85571289 310.43798828 C-158.37231791 319.70674743 -218.07930842 307.36979744 -264.36450195 274.84326172 C-265.22430664 274.21291016 -266.08411133 273.58255859 -266.9699707 272.93310547 C-267.92258789 272.25119141 -268.87520508 271.56927734 -269.85668945 270.86669922 C-287.54921648 257.93843437 -303.67665582 243.14539849 -316.77661133 225.53662109 C-317.87529107 224.06032638 -318.99212585 222.5975889 -320.1105957 221.13623047 C-328.43724905 210.05588074 -335.09474545 197.90556231 -341.69604492 185.74731445 C-342.29376709 184.65398804 -342.29376709 184.65398804 -342.90356445 183.53857422 C-343.4303479 182.56633911 -343.4303479 182.56633911 -343.96777344 181.57446289 C-344.98898828 179.75741518 -344.98898828 179.75741518 -346.9699707 177.93310547 C-340.19719631 179.16513103 -334.85640771 181.18602246 -328.8449707 184.49560547 C-328.02311279 184.93815674 -327.20125488 185.38070801 -326.35449219 185.83666992 C-319.34317657 189.64614914 -312.49766179 193.71085626 -305.69555664 197.87939453 C-302.86339249 199.60882584 -300.01377514 201.30624726 -297.1574707 202.99560547 C-296.20227539 203.56408203 -295.24708008 204.13255859 -294.26293945 204.71826172 C-292.10790835 206.08916025 -292.10790835 206.08916025 -289.9699707 205.93310547 C-289.2274707 205.10810547 -288.4849707 204.28310547 -287.7199707 203.43310547 C-284.9699707 200.93310547 -284.9699707 200.93310547 -281.9699707 200.30810547 C-277.8629363 201.16373764 -276.41595957 202.55188556 -273.9699707 205.93310547 C-273.6574707 209.74560547 -273.6574707 209.74560547 -273.9699707 212.93310547 C-273.35508789 212.95888672 -272.74020508 212.98466797 -272.10668945 213.01123047 C-265.49068076 213.47551178 -265.49068076 213.47551178 -262.9074707 215.74560547 C-261.9699707 217.93310547 -261.9699707 217.93310547 -261.9699707 221.93310547 C-260.7118457 222.28373047 -259.4537207 222.63435547 -258.1574707 222.99560547 C-253.90094227 224.25944864 -249.77975203 225.75031846 -245.63989258 227.34375 C-222.96434007 236.01851087 -199.35020067 240.71253292 -175.2824707 243.43310547 C-167.55216651 244.31987651 -159.8667947 245.29349647 -152.2199707 246.74560547 C-151.06815308 246.93896484 -151.06815308 246.93896484 -149.89306641 247.13623047 C-144.30103278 248.28032878 -142.26539036 250.30849238 -138.9699707 254.93310547 C-135.49710953 257.47987033 -132.17847627 257.29590767 -127.9699707 256.93310547 C-124.71938746 255.51687306 -124.71938746 255.51687306 -121.9699707 253.93310547 C-121.3099707 253.93310547 -120.6499707 253.93310547 -119.9699707 253.93310547 C-119.73165527 253.29179687 -119.49333984 252.65048828 -119.24780273 251.98974609 C-117.9699707 249.93310547 -117.9699707 249.93310547 -115.97729492 249.26708984 C-115.1679248 249.1878125 -114.35855469 249.10853516 -113.5246582 249.02685547 C-112.62062256 248.92526123 -111.71658691 248.82366699 -110.78515625 248.71899414 C-109.81489502 248.62465088 -108.84463379 248.53030762 -107.8449707 248.43310547 C-71.96930458 244.21978361 -39.24082545 229.301598 -16.29418945 200.66748047 C5.48502307 172.19789432 13.33418487 137.35143833 9.72973633 101.98681641 C8.94785602 96.82541035 7.64629161 91.89088173 6.0300293 86.93310547 C5.82104004 86.26359863 5.61205078 85.5940918 5.39672852 84.90429688 C-3.08230785 58.29854157 -20.06930673 37.05640742 -44.8996582 23.97216797 C-67.81469077 12.3243275 -96.04212059 8.0977356 -120.9699707 15.93310547 C-122.12110352 16.27341797 -123.27223633 16.61373047 -124.45825195 16.96435547 C-137.54931538 21.19927872 -148.27640806 28.23954283 -157.9699707 37.93310547 C-158.75243164 38.71556641 -159.53489258 39.49802734 -160.34106445 40.30419922 C-174.2745911 54.98961937 -181.80859825 74.55001664 -182.3449707 94.74560547 C-181.71810181 116.98691394 -175.13648971 136.52693885 -158.7824707 152.18310547 C-143.10720269 165.29134353 -124.21986112 170.69591078 -103.9699707 168.93310547 C-99.15636384 168.14009317 -94.43978989 166.8956252 -89.9699707 164.93310547 C-87.6570731 162.04849484 -87.6570731 162.04849484 -87.9074707 158.43310547 C-88.56329788 154.96229405 -88.56329788 154.96229405 -90.6027832 153.81201172 C-92.75109795 152.86507905 -92.75109795 152.86507905 -95.9699707 151.93310547 C-95.9699707 151.60310547 -95.9699707 151.27310547 -95.9699707 150.93310547 C-95.07793945 150.66755859 -94.1859082 150.40201172 -93.2668457 150.12841797 C-91.51114258 149.59861328 -91.51114258 149.59861328 -89.7199707 149.05810547 C-87.97973633 148.53603516 -87.97973633 148.53603516 -86.2043457 148.00341797 C-83.61869998 147.14778158 -81.34710197 146.23935087 -78.9699707 144.93310547 C-78.7224707 146.19123047 -78.4749707 147.44935547 -78.2199707 148.74560547 C-77.53510605 151.39124702 -77.05690307 152.82276824 -75.3449707 154.99560547 C-71.74073234 156.41833114 -68.6194243 156.19607986 -64.9699707 154.93310547 C-62.52183903 152.25546145 -62.05098052 150.42929059 -61.4699707 146.87060547 C-61.70779292 143.76146167 -61.70779292 143.76146167 -64.2199707 141.68310547 C-66.43990072 140.27042273 -68.61181743 139.08194937 -70.9699707 137.93310547 C-70.51106445 137.39943359 -70.0521582 136.86576172 -69.5793457 136.31591797 C-65.05504208 130.82212071 -62.22136857 125.66467196 -59.9699707 118.93310547 C-59.5574707 117.83998047 -59.1449707 116.74685547 -58.7199707 115.62060547 C-55.93757721 101.94050414 -58.77431429 89.34047702 -66.09106445 77.62451172 C-73.67529803 66.76060957 -84.99285126 60.33525311 -97.9699707 57.93310547 C-103.63753194 57.52051492 -109.29831241 57.68857888 -114.9699707 57.93310547 C-106.94611422 52.58386781 -93.2848941 53.93316078 -84.1496582 55.65185547 C-69.39336951 59.97757603 -57.64382343 68.44939578 -49.9699707 81.93310547 C-49.40342773 82.90183594 -49.40342773 82.90183594 -48.82543945 83.89013672 C-40.97669014 98.32360456 -39.46295966 116.94331252 -44.0324707 132.62060547 C-49.72731824 150.75311533 -61.30266593 165.9001191 -77.87231445 175.45263672 C-99.5639812 185.81977631 -124.67636085 188.88707307 -147.60083008 180.84912109 C-170.26975989 172.08429992 -188.76142691 156.48008401 -199.02319336 134.14941406 C-210.8840075 106.38446543 -213.40477894 75.45644308 -202.1574707 46.99560547 C-197.07823227 35.26256468 -191.03057664 24.86858919 -182.9699707 14.93310547 C-182.28290039 14.07974609 -181.59583008 13.22638672 -180.88793945 12.34716797 C-162.36197593 -9.44403959 -135.52502091 -20.9210719 -107.9699707 -26.06689453 C-107.05521973 -26.24196533 -106.14046875 -26.41703613 -105.19799805 -26.59741211 C-68.03908235 -32.00178323 -30.2257309 -22.04397521 0 0 Z " fill="#3F22A8" transform="translate(356.969970703125,149.06689453125)"/>
<path d="M0 0 C0.74862305 0.21430664 1.49724609 0.42861328 2.26855469 0.64941406 C19.08148871 5.51687537 34.73724128 12.84698918 49 23 C49.56251465 23.40025391 50.1250293 23.80050781 50.70458984 24.21289062 C71.01533434 38.91488293 92.54976573 60.35121497 100 85 C101.03125 85.0825 102.0625 85.165 103.125 85.25 C108.40869717 86.27265107 111.47004857 88.42633567 115.1875 92.25 C119.20178989 98.34064672 120.56172377 103.34135932 119.59765625 110.6328125 C119.00076212 112.9969814 118.24311435 114.44491534 116.875 116.4375 C114.87038835 119.49548734 114.87915881 121.50684032 115.28515625 125.10546875 C115.3934375 126.08298096 115.50171875 127.06049316 115.61328125 128.06762695 C116.06527181 131.49493666 116.59559176 134.90316189 117.15576172 138.31420898 C122.80610025 173.88827915 118.14654679 210.88784537 104 244 C103.71431152 244.67160156 103.42862305 245.34320313 103.13427734 246.03515625 C93.4499587 268.42785414 79.75006371 287.41366292 63 305 C61.85337891 306.24330078 61.85337891 306.24330078 60.68359375 307.51171875 C27.53159096 342.34656432 -23.00613181 361.21719211 -70 366 C-70.97582031 366.11085938 -71.95164063 366.22171875 -72.95703125 366.3359375 C-134.62466704 372.31680912 -198.98616918 353.02183111 -246.953125 313.82421875 C-250.37049537 310.95762155 -253.69276986 307.99225584 -257 305 C-258.09207074 304.02952332 -259.18451789 303.05947004 -260.27734375 302.08984375 C-265.92444849 297.04079954 -271.15472758 291.8309274 -276 286 C-276.81855469 285.06929688 -277.63710938 284.13859375 -278.48046875 283.1796875 C-290.07653875 269.94070227 -299.41631646 255.33048191 -308 240 C-308.64582031 238.85917969 -309.29164063 237.71835937 -309.95703125 236.54296875 C-313.03348774 230.81513991 -315.1662129 226.53079222 -314 220 C-312.375 217.5 -312.375 217.5 -310 216 C-307.0625 215.4375 -307.0625 215.4375 -304 216 C-299.35971302 219.85188871 -297.14219243 224.19981534 -294.5625 229.5 C-286.8584346 244.69706052 -277.3625531 259.26991838 -266 272 C-265.57122559 272.48227051 -265.14245117 272.96454102 -264.70068359 273.46142578 C-245.77617047 294.66842719 -224.37053396 312.05761752 -199 325 C-198.23574707 325.39171387 -197.47149414 325.78342773 -196.68408203 326.18701172 C-153.31310869 348.16707658 -104.8618359 355.25571579 -57 347 C-56.02836914 346.83902832 -55.05673828 346.67805664 -54.05566406 346.51220703 C-4.58858933 338.08969725 40.98941684 312.20913962 70.23046875 271.0546875 C77.91360402 259.96790443 84.20007776 248.3348846 89.25488281 235.83740234 C89.9513915 234.11986486 90.67397223 232.41296484 91.3984375 230.70703125 C94.96460252 222.00774991 97.01244828 213.15562021 99 204 C99.39557975 202.3541057 99.79135298 200.70825786 100.1875 199.0625 C102.33552757 188.975042 102.19879792 178.7006172 102.1875 168.4375 C102.18789276 167.68254242 102.18828552 166.92758484 102.18869019 166.14974976 C102.18191866 155.30334623 101.78853242 144.71813951 100 134 C99.66341723 131.66713318 99.32918097 129.33392276 99 127 C98.41992188 126.97421875 97.83984375 126.9484375 97.2421875 126.921875 C90.25028043 126.41421178 85.95646524 124.37095498 81.25 119.0625 C76.9642476 113.22911478 76.09787095 108.15181823 77 101 C78.5178369 96.55864474 80.57693875 93.20728089 84 90 C76.62425422 64.40182346 51.05206414 42.89931061 29 30 C19.96945685 25.03069433 10.55437346 20.97802681 0.8125 17.625 C0.16152344 17.39828613 -0.48945313 17.17157227 -1.16015625 16.93798828 C-14.32401814 12.683423 -27.5043861 11.44700489 -41.25 11.5625 C-42.01147339 11.56520905 -42.77294678 11.56791809 -43.55749512 11.57070923 C-55.74692523 11.6362661 -67.24322842 12.57375694 -79 16 C-79.66257813 16.18191895 -80.32515625 16.36383789 -81.0078125 16.55126953 C-109.85159655 24.58817052 -134.88026616 42.78429402 -150.12109375 68.5859375 C-155.86536323 79.02354982 -160.25271037 89.34817865 -163 101 C-163.22558594 101.90234375 -163.45117188 102.8046875 -163.68359375 103.734375 C-169.22588798 130.18449641 -163.3093823 160.31851137 -149.16113281 183.24169922 C-136.26627915 202.76834684 -115.73792305 216.3022381 -92.8984375 221.2265625 C-71.51892873 225.04525969 -48.01892903 220.90812403 -29.625 209.25 C-13.93375047 197.98121646 -5.05034258 183.12397523 -0.38671875 164.55859375 C1.74776936 150.43647547 -0.11659361 134.58082046 -7 122 C-7.4434375 121.16855469 -7.886875 120.33710938 -8.34375 119.48046875 C-15.55082512 106.69557751 -25.97872136 99.14265051 -40 95 C-44.71807226 93.76314425 -49.40294963 93.78034147 -54.25 93.75 C-55.05824219 93.729375 -55.86648438 93.70875 -56.69921875 93.6875 C-62.66307731 93.64933131 -67.46351823 94.8502109 -73 97 C-76.59264452 98.19754817 -79.22717474 98.33094958 -83 98 C-85.4375 96.4375 -85.4375 96.4375 -87 94 C-87.5 90.5 -87.5 90.5 -87 87 C-83.94847077 83.00485574 -80.2175535 81.72767267 -75.5625 80.3125 C-74.57926758 79.99442383 -74.57926758 79.99442383 -73.57617188 79.66992188 C-60.5940248 75.54219808 -46.91692084 75.66534597 -34 80 C-32.91976563 80.35191406 -31.83953125 80.70382813 -30.7265625 81.06640625 C-23.26659824 83.70086915 -17.16525613 87.05956103 -11 92 C-10.21753906 92.61875 -9.43507813 93.2375 -8.62890625 93.875 C4.6190341 104.95590794 13.35000805 122.18704352 15.75 139.25 C17.73861404 165.63551308 12.39617357 188.42345904 -4.89355469 208.78564453 C-19.80357331 225.56880804 -42.67654209 236.32985721 -65 238 C-96.54570117 239.38839831 -123.58003897 231.40444466 -147.12109375 210.22265625 C-158.98860797 199.16621087 -166.74758389 185.83482107 -173 171 C-173.38800781 170.13761719 -173.77601563 169.27523437 -174.17578125 168.38671875 C-183.27467019 146.35967874 -184.78871666 116.74091018 -178 94 C-177.71793701 92.98848877 -177.71793701 92.98848877 -177.43017578 91.95654297 C-171.37486486 70.45705796 -160.2792221 52.20358785 -145 36 C-144.39929688 35.33484375 -143.79859375 34.6696875 -143.1796875 33.984375 C-109.34738959 -2.04482538 -46.41523779 -14.09838707 0 0 Z " fill="#6730FD" transform="translate(314,111)"/>
<path d="M0 0 C17.76265994 14.36078908 29.47753388 32.46497097 36.265625 54.2109375 C36.47590332 54.85595215 36.68618164 55.5009668 36.90283203 56.16552734 C42.9466686 75.40722715 42.65911737 99.86424016 37.265625 119.2109375 C36.93691406 120.47679687 36.60820312 121.74265625 36.26953125 123.046875 C30.41010606 144.32929435 19.44815623 162.32350303 4.265625 178.2109375 C3.605625 178.94570313 2.945625 179.68046875 2.265625 180.4375 C-16.41080774 200.45806994 -45.48194485 212.76669347 -72.32421875 215.87890625 C-73.30890137 215.9972583 -74.29358398 216.11561035 -75.30810547 216.23754883 C-77.26441255 216.46558756 -79.22322518 216.6732773 -81.18408203 216.8581543 C-87.03494781 217.52764339 -89.88512299 218.42762042 -93.734375 223.2109375 C-97.73723395 225.42304376 -101.20450787 225.68776562 -105.734375 225.2109375 C-109.13335989 223.31534977 -112.25272388 221.24406665 -114.734375 218.2109375 C-114.734375 217.5509375 -114.734375 216.8909375 -114.734375 216.2109375 C-115.33121094 216.18515625 -115.92804688 216.159375 -116.54296875 216.1328125 C-150.96365063 213.88242617 -183.78012948 195.29209293 -207.734375 171.2109375 C-208.21068359 170.73720703 -208.68699219 170.26347656 -209.17773438 169.77539062 C-232.57353829 146.25050641 -245.74779726 115.47369486 -251.734375 83.2109375 C-251.94835937 82.07011719 -252.16234375 80.92929687 -252.3828125 79.75390625 C-257.08319198 51.04071855 -255.70201788 18.71424841 -245.734375 -8.7890625 C-245.02925781 -8.48226562 -244.32414062 -8.17546875 -243.59765625 -7.859375 C-240.69171927 -6.77311752 -237.97683348 -6.1793567 -234.921875 -5.6640625 C-233.45814453 -5.41269531 -233.45814453 -5.41269531 -231.96484375 -5.15625 C-231.22878906 -5.03507813 -230.49273437 -4.91390625 -229.734375 -4.7890625 C-230.07210937 -3.55671875 -230.40984375 -2.324375 -230.7578125 -1.0546875 C-237.74882985 24.75669196 -240.02579696 50.68764973 -235.734375 77.2109375 C-235.6214209 77.96342773 -235.5084668 78.71591797 -235.39208984 79.49121094 C-231.26176641 106.30790256 -220.191272 131.44228191 -202.734375 152.2109375 C-201.62449219 153.54898438 -201.62449219 153.54898438 -200.4921875 154.9140625 C-195.14507012 161.11747982 -189.22014769 166.2309526 -182.734375 171.2109375 C-181.90550781 171.86707031 -181.07664062 172.52320313 -180.22265625 173.19921875 C-162.74770843 186.55296907 -137.4477776 200.22417757 -114.8359375 199.578125 C-111.7602373 199.040735 -110.08335703 197.19853768 -107.734375 195.2109375 C-103.22716443 193.92798618 -99.76436787 193.82945866 -95.359375 195.4609375 C-92.734375 197.2109375 -92.734375 197.2109375 -91.51953125 198.79296875 C-87.18283576 202.23765248 -79.09057383 200.7330901 -73.734375 200.2109375 C-68.27426068 199.35449941 -63.01314448 197.81740473 -57.734375 196.2109375 C-56.48785156 195.84871094 -55.24132812 195.48648438 -53.95703125 195.11328125 C-39.35982797 190.59473459 -26.5256189 183.99766994 -14.734375 174.2109375 C-13.87328125 173.51355469 -13.0121875 172.81617188 -12.125 172.09765625 C8.63039216 154.46846446 22.01556597 126.21475802 24.265625 99.2109375 C24.78886832 88.10235186 24.56670208 77.11920794 22.265625 66.2109375 C22.08257812 65.25574219 21.89953125 64.30054688 21.7109375 63.31640625 C17.06180007 41.87871701 4.51885104 22.23337739 -13.80078125 9.97265625 C-22.87214594 4.52500582 -32.36417313 -0.42705084 -42.734375 -2.7890625 C-43.35884521 -2.95462646 -43.98331543 -3.12019043 -44.62670898 -3.29077148 C-50.76040739 -4.8260734 -56.61411607 -5.13784118 -62.921875 -5.1015625 C-63.93419189 -5.09664795 -64.94650879 -5.0917334 -65.98950195 -5.08666992 C-85.8269173 -4.77777461 -103.86884456 2.16240036 -118.41796875 15.80078125 C-130.84441717 28.73015507 -137.35092282 45.28715155 -137.171875 63.0859375 C-137.16160278 64.6630249 -137.16160278 64.6630249 -137.15112305 66.27197266 C-136.98635719 74.25355141 -135.99786702 80.85734528 -132.734375 88.2109375 C-132.38375 89.08363281 -132.033125 89.95632813 -131.671875 90.85546875 C-126.21996162 103.17906463 -115.76054732 112.46007956 -103.421875 117.5859375 C-96.73815775 120.1268548 -90.62852784 120.36626578 -83.546875 120.3359375 C-82.63228516 120.33980469 -81.71769531 120.34367188 -80.77539062 120.34765625 C-79.46538086 120.34572266 -79.46538086 120.34572266 -78.12890625 120.34375 C-77.33331299 120.34262207 -76.53771973 120.34149414 -75.71801758 120.34033203 C-73.65881979 120.3348452 -73.65881979 120.3348452 -71.734375 119.2109375 C-66.89151988 118.54492599 -63.7257938 118.50278122 -59.671875 121.3984375 C-57.734375 124.2109375 -57.734375 124.2109375 -57.109375 126.7109375 C-58.0237483 130.36843069 -59.59636905 132.27627705 -62.734375 134.2109375 C-76.22617944 139.70840976 -94.38705634 138.74598174 -107.73193359 133.41259766 C-127.06990205 125.02356596 -140.71733411 111.54943211 -149.0546875 92.13671875 C-156.5712103 71.28532773 -155.18736662 48.87428668 -146.39453125 28.71484375 C-141.91431562 19.25895335 -135.93783564 11.73713383 -128.734375 4.2109375 C-128.15945312 3.57285156 -127.58453125 2.93476563 -126.9921875 2.27734375 C-94.95810351 -32.13247374 -34.80974296 -26.79797673 0 0 Z " fill="#A826FD" transform="translate(327.734375,181.7890625)"/>
<path d="M0 0 C0.66 0 1.32 0 2 0 C2.65268078 3.45707638 3.29584965 6.91586077 3.9375 10.375 C4.11990234 11.34050781 4.30230469 12.30601562 4.49023438 13.30078125 C11.25696733 49.96417072 6.63323774 88.74867084 -8 123 C-8.28568848 123.67160156 -8.57137695 124.34320313 -8.86572266 125.03515625 C-18.5500413 147.42785414 -32.24993629 166.41366292 -49 184 C-50.14662109 185.24330078 -50.14662109 185.24330078 -51.31640625 186.51171875 C-84.46840904 221.34656432 -135.00613181 240.21719211 -182 245 C-182.97582031 245.11085938 -183.95164063 245.22171875 -184.95703125 245.3359375 C-246.62466704 251.31680912 -310.98616918 232.02183111 -358.953125 192.82421875 C-362.37049537 189.95762155 -365.69276986 186.99225584 -369 184 C-370.09207074 183.02952332 -371.18451789 182.05947004 -372.27734375 181.08984375 C-377.92444849 176.04079954 -383.15472758 170.8309274 -388 165 C-388.81855469 164.06929687 -389.63710938 163.13859375 -390.48046875 162.1796875 C-402.07653875 148.94070227 -411.41631646 134.33048191 -420 119 C-420.64582031 117.85917969 -421.29164063 116.71835937 -421.95703125 115.54296875 C-425.03348774 109.81513991 -427.1662129 105.53079222 -426 99 C-424.375 96.5 -424.375 96.5 -422 95 C-419.0625 94.4375 -419.0625 94.4375 -416 95 C-411.35971302 98.85188871 -409.14219243 103.19981534 -406.5625 108.5 C-398.8584346 123.69706052 -389.3625531 138.26991838 -378 151 C-377.57122559 151.48227051 -377.14245117 151.96454102 -376.70068359 152.46142578 C-357.77617047 173.66842719 -336.37053396 191.05761752 -311 204 C-310.23574707 204.39171387 -309.47149414 204.78342773 -308.68408203 205.18701172 C-265.31310869 227.16707658 -216.8618359 234.25571579 -169 226 C-168.02836914 225.83902832 -167.05673828 225.67805664 -166.05566406 225.51220703 C-116.58858933 217.08969725 -71.01058316 191.20913962 -41.76953125 150.0546875 C-34.08639598 138.96790443 -27.79992224 127.3348846 -22.74511719 114.83740234 C-22.0486085 113.11986486 -21.32602777 111.41296484 -20.6015625 109.70703125 C-17.03539748 101.00774991 -14.98755172 92.15562021 -13 83 C-12.60442025 81.3541057 -12.20864702 79.70825786 -11.8125 78.0625 C-9.66447243 67.975042 -9.80120208 57.7006172 -9.8125 47.4375 C-9.81210724 46.68254242 -9.81171448 45.92758484 -9.81130981 45.14974976 C-9.81808134 34.30334623 -10.21146758 23.71813951 -12 13 C-12.33658277 10.66713318 -12.67081903 8.33392276 -13 6 C-12.22914063 5.73445312 -11.45828125 5.46890625 -10.6640625 5.1953125 C-9.66117187 4.84210938 -8.65828125 4.48890625 -7.625 4.125 C-6.62726563 3.77695313 -5.62953125 3.42890625 -4.6015625 3.0703125 C-1.89557882 2.15217498 -1.89557882 2.15217498 0 0 Z " fill="#6630FC" transform="translate(426,232)"/>
<path d="M0 0 C0.98758301 0.21430664 1.97516602 0.42861328 2.99267578 0.64941406 C39.73993895 8.92251575 73.82165666 25.19064738 103 49 C103.61568848 49.49999512 104.23137695 49.99999023 104.86572266 50.51513672 C137.24325185 77.00584242 174.86321894 121.9476825 181.32714844 165.18847656 C181.49899011 168.49604848 181.21090901 170.64848499 179.5 173.5 C175.96341145 175.62195313 173.01811391 175.91132481 169 175 C165.59166906 172.32860548 164.76240384 169.41832715 163.75 165.375 C154.60439919 128.987184 128.7433649 91.79311872 100 68 C99.20078125 67.28972656 98.4015625 66.57945313 97.578125 65.84765625 C62.53867579 35.31186506 18.67128052 18.53543626 -27 13 C-27.76642822 12.896875 -28.53285645 12.79375 -29.32250977 12.6875 C-48.7325355 10.21460399 -68.78425736 11.76358952 -88 15 C-88.7739209 15.12858398 -89.5478418 15.25716797 -90.34521484 15.38964844 C-127.85370245 21.93967538 -160.3499926 39.2676544 -188 65 C-188.71671875 65.65097656 -189.4334375 66.30195312 -190.171875 66.97265625 C-201.37982874 77.58748835 -210.32731481 90.67131726 -218 104 C-218.50789063 103.66226563 -219.01578125 103.32453125 -219.5390625 102.9765625 C-223.59911488 100.34589186 -227.287806 98.29585335 -232 97 C-227.48074797 84.3412349 -218.36856727 73.4322016 -209.45507812 63.60644531 C-208.05427533 62.05992142 -206.67341407 60.49780675 -205.296875 58.9296875 C-200.49613187 53.52516993 -195.6067883 48.55852085 -190 44 C-189.05253906 43.20335937 -188.10507813 42.40671875 -187.12890625 41.5859375 C-159.49911672 18.76934954 -126.90952594 5.78938005 -92 -1 C-91.20271484 -1.16516113 -90.40542969 -1.33032227 -89.58398438 -1.50048828 C-61.096213 -7.22527526 -28.2990204 -6.15542341 0 0 Z " fill="#A826FC" transform="translate(331,39)"/>
<path d="M0 0 C10.11378629 7.79918843 18.11824641 18.52092896 20.30859375 31.36328125 C21.8610747 45.95660219 18.94146194 58.23336753 10.015625 69.9921875 C8.5625 71.75 8.5625 71.75 7.5625 72.75 C8.490625 73.183125 9.41875 73.61625 10.375 74.0625 C14.72105355 76.36335188 14.72105355 76.36335188 16.5625 78.75 C16.7421875 80.90625 16.7421875 80.90625 16.4375 83.25 C16.35242188 84.0234375 16.26734375 84.796875 16.1796875 85.59375 C15.44586083 88.15749889 14.67914315 89.14781873 12.5625 90.75 C5.78747704 92.38911846 5.78747704 92.38911846 1.6875 90.25 C-0.88721722 87.22092092 -1.62161619 84.6069053 -2.4375 80.75 C-3.489375 81.348125 -4.54125 81.94625 -5.625 82.5625 C-15.99087951 87.70881121 -28.26599313 89.62472929 -39.5 86.5625 C-52.20062836 82.20857211 -62.58174724 75.37333575 -69.19140625 63.37109375 C-75.7673207 49.53899783 -77.2436106 37.421285 -72.4375 22.75 C-67.86439876 10.66266573 -59.01168168 1.40948961 -47.4375 -4.25 C-31.06943679 -10.67146368 -14.8000041 -9.73803951 0 0 Z " fill="#C9796F" transform="translate(279.4375,214.25)"/>
<path d="M0 0 C0.70511719 0.30679688 1.41023438 0.61359375 2.13671875 0.9296875 C5.04265573 2.01594498 7.75754152 2.6097058 10.8125 3.125 C11.78832031 3.29257813 12.76414062 3.46015625 13.76953125 3.6328125 C14.50558594 3.75398437 15.24164063 3.87515625 16 4 C15.66226563 5.23234375 15.32453125 6.4646875 14.9765625 7.734375 C7.98554515 33.54575446 5.70857804 59.47671223 10 86 C10.1129541 86.75249023 10.2259082 87.50498047 10.34228516 88.28027344 C14.47260859 115.09696506 25.543103 140.23134441 43 161 C44.10988281 162.33804688 44.10988281 162.33804688 45.2421875 163.703125 C50.58930488 169.90654232 56.51422731 175.0200151 63 180 C63.82886719 180.65613281 64.65773438 181.31226563 65.51171875 181.98828125 C84.51070217 196.50664683 108.03900219 207.00325018 132 209 C131.67257813 209.70511719 131.34515625 210.41023437 131.0078125 211.13671875 C129.91599278 214.23867167 129.79614604 216.54006053 129.875 219.8125 C129.89304688 220.78832031 129.91109375 221.76414062 129.9296875 222.76953125 C129.95289063 223.50558594 129.97609375 224.24164063 130 225 C95.23388492 222.79262761 62.21700648 204.3453085 38 180 C37.52369141 179.52626953 37.04738281 179.05253906 36.55664062 178.56445312 C13.16083671 155.03956891 -0.01342226 124.26275736 -6 92 C-6.21398437 90.85917969 -6.42796875 89.71835937 -6.6484375 88.54296875 C-11.34881698 59.82978105 -9.96764288 27.50331091 0 0 Z " fill="#A827FC" transform="translate(82,173)"/>
<path d="M0 0 C5.35070075 4.08575967 9.23163703 10.44405792 11.25 16.8125 C12.30741814 28.25966609 11.43270255 37.81329391 4.125 47.125 C-0.91350462 52.51249196 -8.38951963 56.47061144 -15.7890625 57.05078125 C-23.42548691 57.20883361 -29.20317242 56.88214958 -35.75 52.8125 C-36.45898438 52.37679687 -37.16796875 51.94109375 -37.8984375 51.4921875 C-44.36894184 47.09032024 -48.32068885 41.22885518 -50.75 33.8125 C-51.57847403 24.3011878 -51.64621491 15.16072047 -45.86328125 7.22265625 C-33.36968668 -7.62575195 -16.53012709 -10.44008027 0 0 Z " fill="#FEF55B" transform="translate(271.75,227.1875)"/>
<path d="M0 0 C5.60462946 3.27796324 9.14124476 8.06426291 11.18359375 14.16796875 C12.39205822 20.2102911 11.40869586 26.56883891 8.06640625 31.7734375 C4.20209403 36.06711774 -1.51719492 39.97932768 -7.35546875 40.578125 C-13.88696795 40.71684711 -19.37718712 40.10135738 -24.359375 35.5703125 C-29.78505191 29.62897208 -31.88772803 25.01490968 -31.68359375 16.93359375 C-30.86837689 10.17451723 -27.36424745 5.84634707 -22.25390625 1.6015625 C-15.61600482 -2.73170372 -7.23108731 -3.29309479 0 0 Z " fill="#FD79E4" transform="translate(422.375,197.625)"/>
<path d="M0 0 C4.49353043 2.6091467 7.06504528 6.25765427 9.67578125 10.6484375 C11.22856202 17.32539482 11.07730333 23.48850165 7.63671875 29.515625 C4.12798057 34.29653725 -0.07330449 37.47187895 -5.69921875 39.3359375 C-12.53116428 40.3193236 -17.92861629 39.55220992 -23.7578125 35.80859375 C-29.23093374 31.65695048 -31.50961365 27.58439964 -32.5390625 20.91796875 C-32.9753271 13.88453208 -30.92349565 8.47982424 -26.4609375 3.06640625 C-18.7499562 -4.50779489 -9.42462877 -4.13335197 0 0 Z " fill="#FEF55B" transform="translate(106.69921875,137.6640625)"/>
<path d="M0 0 C3.01018628 3.61222353 3.32235852 6.37952789 3 11 C4.2375 10.896875 5.475 10.79375 6.75 10.6875 C10.14098347 10.69954612 10.78825125 10.82956808 13.5625 13.0625 C15.46450952 16.9492151 15.2706357 18.88911979 14 23 C11.23445003 26.08161282 9.83445768 26.93702206 5.6875 27.25 C4.800625 27.1675 3.91375 27.085 3 27 C3.12375 28.3303125 3.12375 28.3303125 3.25 29.6875 C2.93702206 33.83445768 2.08161282 35.23445003 -1 38 C-5.08346933 39.26216325 -7.0273059 39.48634705 -10.875 37.5625 C-13.81969918 34.01153922 -13.77196829 31.56063417 -14 27 C-15.3303125 27.12375 -15.3303125 27.12375 -16.6875 27.25 C-20.80694806 26.93909826 -22.21928844 26.01905826 -25 23 C-26.26672211 19.27900381 -26.3611493 17.73871449 -24.625 14.1875 C-23 12 -23 12 -22 11 C-19.32941149 10.85884839 -16.67567762 10.95752893 -14 11 C-13.96261719 10.38511719 -13.92523438 9.77023438 -13.88671875 9.13671875 C-13.82097656 8.32847656 -13.75523438 7.52023438 -13.6875 6.6875 C-13.62949219 5.88699219 -13.57148437 5.08648437 -13.51171875 4.26171875 C-12.91048936 1.60437662 -12.10115123 0.68301168 -10 -1 C-6.2952989 -2.66072808 -3.57413566 -1.67299967 0 0 Z " fill="#FF72B0" transform="translate(87,47)"/>
<path d="M0 0 C1.9375 1.625 1.9375 1.625 3 4 C3.1875 7.75 3.1875 7.75 3 11 C3.61488281 11.02578125 4.22976563 11.0515625 4.86328125 11.078125 C11.41333333 11.53777778 11.41333333 11.53777778 14.0625 13.625 C15.38696244 16.98030486 15.44672088 19.42623292 15 23 C13.5 25.4375 13.5 25.4375 11 27 C8.24154167 27.32111824 5.79456032 27.18630402 3 27 C3.12375 28.85625 3.12375 28.85625 3.25 30.75 C3.2444593 33.88049824 3.15513302 34.77591897 1.3125 37.4375 C-1.33817724 39.22849814 -2.79382862 39.92366259 -6 40 C-11.63855422 37.72289157 -11.63855422 37.72289157 -13 35 C-13.13415472 32.3276379 -13.04318541 29.67749512 -13 27 C-14.2375 27.0825 -15.475 27.165 -16.75 27.25 C-19.80700305 27.23373935 -20.828179 27.10738813 -23.5 25.4375 C-25.56851618 22.0761612 -25.48505011 19.88040089 -25 16 C-24.0625 13.625 -24.0625 13.625 -22 12 C-19.00762978 11.37393673 -16.05114366 11.12793055 -13 11 C-13.061875 9.9275 -13.12375 8.855 -13.1875 7.75 C-12.99365905 3.873181 -12.73628314 2.63493932 -10 0 C-6.20519658 -1.26493447 -3.87641726 -0.89988258 0 0 Z " fill="#FFF75A" transform="translate(430,426)"/>
<path d="M0 0 C2.8125 2.0625 2.8125 2.0625 5 5 C5.3125 8.8125 5.3125 8.8125 5 12 C5.9075 11.95875 6.815 11.9175 7.75 11.875 C10.92722465 11.99720095 12.41216824 12.24397131 15 14 C17 17 17 17 16.9375 20.4375 C16 24 16 24 13.8125 26.4375 C10.58823227 28.22875985 8.63195497 28.33785628 5 28 C5.12375 29.85625 5.12375 29.85625 5.25 31.75 C5.23373935 34.80700305 5.10738813 35.828179 3.4375 38.5 C0.00863886 40.61006839 -2.04220351 40.62491523 -6 40 C-8.9375 37.9375 -8.9375 37.9375 -11 35 C-11.3125 31.1875 -11.3125 31.1875 -11 28 C-12.60875 28.12375 -12.60875 28.12375 -14.25 28.25 C-18 28 -18 28 -20.4375 26.5 C-22.33241448 23.46813683 -22.64036692 21.43919544 -22.44921875 17.90625 C-22 16 -22 16 -19.875 13.5 C-16.62603831 11.80488955 -14.61305558 11.66390181 -11 12 C-11.12375 10.6696875 -11.12375 10.6696875 -11.25 9.3125 C-10.94530814 5.27533282 -9.77959995 3.86135289 -7 1 C-4.35955695 -0.32022153 -2.93650531 -0.40974493 0 0 Z " fill="#FBF9FC" transform="translate(394,94)"/>
<path d="M0 0 C4.10703441 0.85563217 5.55401113 2.24378009 8 5.625 C8.3125 9.4375 8.3125 9.4375 8 12.625 C8.61488281 12.65078125 9.22976562 12.6765625 9.86328125 12.703125 C16.39375929 13.16140416 16.39375929 13.16140416 19.125 15.25 C20.39932486 18.70888176 19.89921842 21.09235621 19 24.625 C17.42114034 26.68438216 16.30857577 27.47071211 14 28.625 C12.00039988 28.664992 9.99952758 28.66846799 8 28.625 C8.04125 29.5325 8.0825 30.44 8.125 31.375 C8.00279905 34.55222465 7.75602869 36.03716824 6 38.625 C2.50875983 40.95249345 1.10777749 41.12799316 -3 40.625 C-5.30275556 38.7579009 -6.67823871 37.26852259 -8 34.625 C-8.039992 32.62539988 -8.04346799 30.62452758 -8 28.625 C-9.5778125 28.7796875 -9.5778125 28.7796875 -11.1875 28.9375 C-15 28.625 -15 28.625 -18 26.5625 C-20 23.625 -20 23.625 -20 20 C-18.52068474 15.00731098 -18.52068474 15.00731098 -16 13.625 C-13.28142577 13.38860224 -10.74012331 13.49023984 -8 13.625 C-8.103125 12.408125 -8.20625 11.19125 -8.3125 9.9375 C-8.30621859 6.40106592 -8.04353719 5.68646428 -5.875 2.625 C-3 0.625 -3 0.625 0 0 Z " fill="#FBFAFD" transform="translate(75,349.375)"/>
<path d="M0 0 C3.57548545 2.38964605 7.05196574 5.10393149 9 9 C9.51592086 14.17612405 9.59738983 18.63098164 7.5 23.4375 C3.33881785 27.7027117 -0.728841 29.68673669 -6.625 30.5 C-11.89155748 29.71976926 -14.80195881 27.32755916 -18.3125 23.4375 C-21.2273874 19.22710709 -21.68360756 15.00362754 -21 10 C-16.44403225 1.22554359 -9.59483485 -2.82746341 0 0 Z " fill="#FCFAFD" transform="translate(232,377)"/>
<path d="M0 0 C1.81022901 2.91648007 2.00781777 5.41421539 2.125 8.8125 C0.83001017 11.97803069 -0.50752219 13.50626849 -3.125 15.6875 C-6.83869801 17.20674009 -9.03154948 16.86071378 -12.875 15.8125 C-15.84747625 13.7004774 -16.70852425 12.37138287 -17.75 8.875 C-17.91754462 4.77015686 -17.02621581 2.27768376 -14.5 -0.9375 C-9.85554097 -4.5101608 -4.73361757 -2.99795779 0 0 Z " fill="#6730FF" transform="translate(55.875,231.1875)"/>
<path d="M0 0 C3.69059994 0.87426509 5.13063077 2.36922768 7.16015625 5.51171875 C8.10666867 9.70341662 7.60623459 12.63814867 5.66015625 16.44921875 C2.27100835 19.24526576 -0.48102923 19.90493234 -4.83984375 19.51171875 C-8.27734375 18.13671875 -8.27734375 18.13671875 -10.83984375 15.51171875 C-12.23136415 11.76313318 -12.56590452 8.35884744 -11.0859375 4.59375 C-8.14674618 0.28225332 -4.8566795 -0.36485906 0 0 Z " fill="#000000" transform="translate(469.83984375,237.48828125)"/>
<path d="M0 0 C3.5060303 0.86943897 4.94966563 2.56083702 6.9375 5.48046875 C7.5625 8.98046875 7.5625 8.98046875 6.9375 12.48046875 C4.37323777 16.05489489 2.64978711 17.26423874 -1.5625 18.54296875 C-5.0625 18.48046875 -5.0625 18.48046875 -7.9375 17.10546875 C-10.51140945 13.92593354 -11.09651637 11.71375899 -11.31640625 7.67578125 C-11.0625 5.48046875 -11.0625 5.48046875 -9.125 2.41796875 C-5.76840049 0.29440579 -3.89930746 -0.27324692 0 0 Z " fill="#F8F7FC" transform="translate(254.0625,132.51953125)"/>
<path d="M0 0 C2.875 1.5625 2.875 1.5625 5 4 C6.14009771 7.91908586 6.40888632 10.03158504 4.8125 13.8125 C2.85980888 16.16919618 1.94024566 17.18326509 -1 18 C-4.78825503 17.86470518 -7.23184073 17.49240979 -10.4375 15.4375 C-12.25759307 12.59815481 -12.63409202 10.33922437 -12.4453125 6.97265625 C-10.97112337 0.44225703 -5.94328138 -0.95517022 0 0 Z " fill="#FAF9FC" transform="translate(321,398)"/>
<path d="M0 0 C4.89009914 0.85791213 6.40069889 1.75179363 9.5625 5.625 C10.00964191 9.55296966 9.69765442 13.15499177 7.23828125 16.33984375 C4.37156718 18.5383261 1.06840243 18.87102824 -2.4375 18.625 C-5.29743478 16.86035939 -6.93532849 15.62934303 -8.4375 12.625 C-8.92805907 8.29172826 -8.91494439 6.30499656 -6.375 2.6875 C-3.4375 0.625 -3.4375 0.625 0 0 Z " fill="#FBFAFC" transform="translate(286.4375,287.375)"/>
<path d="M0 0 C0 3 0 3 -2.01953125 5.36010742 C-3.40205078 6.71906128 -3.40205078 6.71906128 -4.8125 8.10546875 C-5.30081299 8.5895369 -5.78912598 9.07360504 -6.29223633 9.57234192 C-7.85459826 11.1179014 -9.42706327 12.65271107 -11 14.1875 C-12.06057762 15.23303282 -13.12048229 16.27924873 -14.1796875 17.32617188 C-16.77869434 19.89208902 -19.3868639 22.44846467 -22 25 C-22 21.55976047 -21.6780229 21.27885862 -19.4375 18.890625 C-18.89125977 18.30369873 -18.34501953 17.71677246 -17.78222656 17.11206055 C-17.1940918 16.49758057 -16.60595703 15.88310059 -16 15.25 C-15.40928711 14.62327393 -14.81857422 13.99654785 -14.20996094 13.35083008 C-10.02851393 8.95871213 -5.69768498 4.8399616 -1 1 C-0.67 0.67 -0.34 0.34 0 0 Z " fill="#9C22EC" transform="translate(142,82)"/>
<path d="M0 0 C0 0.33 0 0.66 0 1 C-1.36125 1.4021875 -1.36125 1.4021875 -2.75 1.8125 C-5.71471963 2.89576294 -7.6169754 3.98359457 -10 6 C-7.83322503 -0.036016 -6.28508493 -0.13663228 0 0 Z " fill="#592CE0" transform="translate(10,327)"/>
</svg>
